<svg width="40" height="40" viewBox="0 0 40 40" fill="none" xmlns="http://www.w3.org/2000/svg">
<g clip-path="url(#clip0_261_4843)">
<path d="M11.6673 31.6667C13.5083 31.6667 15.0007 30.1743 15.0007 28.3333C15.0007 26.4924 13.5083 25 11.6673 25C9.82637 25 8.33398 26.4924 8.33398 28.3333C8.33398 30.1743 9.82637 31.6667 11.6673 31.6667Z" stroke="black" stroke-width="2" stroke-linecap="round" stroke-linejoin="round"/>
<path d="M28.3333 31.6667C30.1743 31.6667 31.6667 30.1743 31.6667 28.3333C31.6667 26.4924 30.1743 25 28.3333 25C26.4924 25 25 26.4924 25 28.3333C25 30.1743 26.4924 31.6667 28.3333 31.6667Z" stroke="black" stroke-width="2" stroke-linecap="round" stroke-linejoin="round"/>
<path d="M8.33398 28.3335H7.00065C5.89608 28.3335 5.00065 27.4381 5.00065 26.3335V21.6668M3.33398 8.3335H19.6673C20.7719 8.3335 21.6673 9.22893 21.6673 10.3335V28.3335M15.0007 28.3335H25.0007M31.6673 28.3335H33.0007C34.1052 28.3335 35.0007 27.4381 35.0007 26.3335V18.3335M35.0007 18.3335H21.6673M35.0007 18.3335L30.5833 10.9712C30.2218 10.3688 29.5708 10.0002 28.8683 10.0002H21.6673" stroke="black" stroke-width="2" stroke-linecap="round" stroke-linejoin="round"/>
<path d="M8 28H6.83333C5.91286 28 5.16667 27.2538 5.16667 26.3333V13.1667C5.16667 12.2462 5.91286 11.5 6.83333 11.5H12.1667C13.0871 11.5 13.8333 12.2462 13.8333 13.1667V17.6667" stroke="black" stroke-width="2" stroke-linecap="round" stroke-linejoin="round"/>
<path d="M5.16602 15.4167H13.8327" stroke="black" stroke-width="2" stroke-linecap="round" stroke-linejoin="round"/>
</g>
<defs>
<clipPath id="clip0_261_4843">
<rect width="40" height="40" fill="white"/>
</clipPath>
</defs>
</svg>
